<?xml version="1.0" standalone="no"?>
<!DOCTYPE svg PUBLIC "-//W3C//DTD SVG 20010904//EN"
 "http://www.w3.org/TR/2001/REC-SVG-20010904/DTD/svg10.dtd">
<svg version="1.0" xmlns="http://www.w3.org/2000/svg"
 width="500.000000pt" height="500.000000pt" viewBox="0 0 500.000000 500.000000"
 preserveAspectRatio="xMidYMid meet">

<g transform="translate(0.000000,500.000000) scale(0.100000,-0.100000)"
fill="#000000" stroke="none">
<path d="M2370 4124 c-14 -2 -63 -9 -110 -15 -307 -41 -627 -194 -871 -417
-228 -209 -410 -529 -480 -841 -33 -151 -45 -333 -31 -483 11 -113 20 -168 59
-334 4 -18 -3 -23 -59 -38 -61 -17 -184 -70 -143 -62 11 2 62 16 113 31 53 15
97 24 102 19 5 -5 11 -20 15 -34 6 -24 3 -26 -82 -48 -96 -24 -273 -104 -273
-123 0 -14 28 -8 105 24 51 22 145 49 247 71 26 6 30 2 77 -91 245 -488 681
-807 1221 -894 107 -18 381 -18 480 0 192 33 349 84 499 161 309 159 546 395
707 704 36 69 71 121 97 145 93 84 150 241 87 241 -23 0 -33 -18 -49 -85 -7
-27 -19 -61 -27 -75 -10 -16 -13 -18 -9 -6 3 11 15 56 27 100 16 63 29 90 58
122 46 50 77 138 92 264 17 147 0 198 -57 172 -24 -11 -24 -11 -8 -58 21 -62
12 -195 -17 -260 -11 -26 -22 -45 -23 -43 -2 2 1 55 7 118 22 259 -33 552
-149 799 -235 496 -676 829 -1225 922 -68 11 -337 22 -380 14z m333 -129 c157
-20 298 -64 452 -139 374 -183 641 -484 773 -872 34 -99 72 -272 72 -328 0
-33 -2 -36 -19 -26 -11 5 -32 10 -48 10 -28 0 -29 1 -46 101 -76 445 -358 820
-774 1028 -370 185 -856 185 -1226 0 -342 -171 -591 -450 -715 -800 -16 -47
-39 -128 -51 -180 -11 -52 -30 -119 -42 -149 -26 -67 -37 -234 -20 -325 6 -33
31 -100 56 -150 25 -49 45 -95 45 -101 0 -10 -88 -26 -99 -18 -2 2 -14 46 -27
99 -97 404 -22 842 205 1186 69 105 203 253 297 329 342 275 744 391 1167 335z
m48 -150 c101 -17 258 -69 345 -113 446 -226 723 -631 765 -1119 12 -137 1
-325 -20 -346 -30 -30 -62 53 -85 223 -13 91 -18 108 -41 127 -32 28 -76 29
-132 3 -47 -21 -57 -40 -18 -33 28 6 28 7 50 -149 17 -117 33 -172 67 -226 24
-39 79 -66 114 -58 30 8 30 -2 0 -90 -52 -150 -53 -152 -110 -169 -76 -23
-301 -45 -466 -45 -207 0 -420 14 -859 57 -358 34 -381 38 -330 48 68 14 87
24 132 74 58 64 67 113 67 358 l0 213 45 0 c25 0 45 -4 45 -8 0 -4 12 -8 28
-7 l27 0 3 -200 c2 -190 3 -201 23 -217 26 -22 67 -23 97 -2 22 15 22 19 22
225 0 196 -1 210 -20 229 -24 24 -76 26 -128 5 -24 -10 -38 -12 -40 -5 -2 5
-26 10 -53 10 l-49 0 0 70 c0 80 19 135 49 145 41 13 91 -36 91 -90 0 -16 4
-35 8 -41 11 -16 48 -34 72 -34 25 0 70 42 70 65 0 24 -46 65 -74 65 -15 0
-27 7 -31 18 -12 40 -124 64 -191 42 -89 -29 -133 -91 -134 -187 l0 -53 -40 0
c-29 0 -40 -4 -40 -15 0 -11 11 -15 41 -15 l41 0 -4 -252 c-3 -234 -5 -256
-25 -300 -23 -51 -46 -68 -92 -68 -30 0 -55 18 -77 56 -10 16 -13 17 -28 5
-24 -20 -16 -63 14 -79 22 -12 17 -13 -45 -7 -38 3 -188 6 -331 6 l-262 1 -11
25 c-6 13 -11 26 -11 27 0 2 40 7 90 11 59 5 90 11 90 19 0 7 16 18 36 25 46
17 108 71 96 83 -6 6 -25 -1 -51 -18 -59 -38 -125 -43 -170 -12 -68 46 -101
155 -101 334 1 209 62 354 150 354 36 0 46 -14 53 -78 7 -64 12 -72 42 -72 34
0 65 37 65 78 0 109 -201 151 -324 67 l-36 -25 6 28 c97 406 360 734 744 927
120 60 303 111 465 129 72 7 288 -3 376 -19z m1205 -1688 c-10 -60 -43 -117
-99 -170 -27 -26 -52 -46 -54 -44 -2 2 12 51 32 109 19 58 35 111 35 117 0 7
10 35 21 62 l22 50 24 -43 c19 -34 23 -51 19 -81z m-2726 -93 c0 -2 -7 -4 -15
-4 -8 0 -15 4 -15 10 0 5 7 7 15 4 8 -4 15 -8 15 -10z m-43 -73 c6 -17 8 -32
5 -35 -3 -3 -27 -6 -53 -6 -43 0 -48 2 -57 29 -10 28 -9 30 16 34 68 10 77 8
89 -22z m576 -92 c95 -5 264 -19 377 -30 518 -49 628 -59 820 -70 215 -12 603
-7 678 9 51 11 51 8 -3 -72 -194 -293 -507 -501 -866 -577 -148 -31 -390 -31
-538 0 -338 71 -615 245 -823 517 -45 58 -138 211 -138 226 0 11 292 10 493
-3z m-517 -41 c10 -24 47 -85 82 -136 214 -322 531 -532 918 -609 123 -24 385
-24 508 0 397 79 722 300 938 637 43 68 55 79 118 111 38 20 70 35 70 34 0
-17 -67 -141 -116 -215 -262 -399 -661 -638 -1136 -681 -438 -40 -876 118
-1187 430 -119 119 -221 256 -281 378 -22 44 -40 84 -40 87 0 3 24 6 53 6 54
0 54 0 73 -42z"/>
<path d="M2375 3687 c-79 -38 -135 -107 -135 -166 0 -15 -11 -22 -49 -31 -118
-28 -180 -170 -113 -259 25 -34 80 -71 106 -71 44 0 51 -14 50 -105 0 -47 1
-85 3 -85 2 0 32 10 66 22 50 18 83 22 172 21 61 0 132 -6 159 -12 27 -6 50
-10 52 -8 2 2 -17 15 -43 30 -72 39 -160 50 -265 34 l-87 -13 -7 56 c-10 82
-19 100 -51 100 -40 0 -108 37 -121 66 -35 75 7 158 90 179 24 6 28 3 37 -33
6 -22 20 -51 31 -64 l20 -23 -16 40 c-39 96 9 217 106 268 50 26 61 29 128 24
45 -3 85 -13 105 -24 49 -29 88 -92 95 -154 l7 -54 36 3 c92 8 176 -43 186
-113 11 -84 -42 -145 -126 -145 -29 0 -30 2 -21 26 13 33 13 64 0 64 -5 0 -10
-5 -10 -12 0 -23 -54 -90 -89 -109 l-36 -20 43 6 42 5 1 -42 c0 -24 4 -52 9
-63 7 -17 9 -14 10 15 4 75 10 83 67 85 67 2 112 30 141 85 61 122 -11 248
-154 266 l-51 6 -12 48 c-7 27 -28 66 -48 89 -52 61 -103 84 -198 88 -69 4
-87 1 -130 -20z"/>
<path d="M2696 2865 c-41 -14 -84 -50 -74 -60 3 -4 21 1 39 10 86 45 180 -23
217 -158 10 -35 9 -38 -6 -31 -84 36 -187 -8 -234 -100 -27 -52 -35 -159 -18
-223 24 -83 112 -153 195 -153 73 0 155 55 187 126 44 100 42 298 -4 421 -29
79 -96 149 -161 168 -62 18 -90 18 -141 0z m170 -300 c26 -26 26 -27 22 -165
-3 -122 -5 -142 -24 -167 -32 -42 -64 -38 -89 12 -15 32 -19 61 -19 145 0 110
14 173 42 190 27 15 41 12 68 -15z"/>
<path d="M1670 2613 c-75 -40 -113 -107 -114 -206 -1 -85 15 -136 57 -183 98
-113 269 -88 339 50 29 57 35 159 14 224 -41 123 -179 176 -296 115z m133 -41
c55 -60 40 -346 -18 -368 -31 -12 -63 13 -75 58 -18 66 -9 267 13 301 21 32
56 36 80 9z"/>
<path d="M3210 2613 c-75 -40 -113 -107 -114 -206 -1 -78 21 -152 54 -182 10
-9 16 -24 13 -32 -4 -9 -1 -13 8 -11 11 2 73 -17 87 -28 8 -5 -20 -44 -31 -44
-46 0 -217 -109 -217 -138 0 -26 23 -20 72 18 90 72 143 94 224 95 84 0 117
20 112 67 -2 19 6 37 29 60 46 49 65 95 71 169 14 196 -146 316 -308 232z
m133 -41 c55 -60 40 -346 -18 -368 -31 -12 -63 13 -75 58 -18 66 -9 267 13
301 21 32 56 36 80 9z m37 -446 c-8 -8 -28 -17 -45 -21 -29 -5 -29 -5 -5 6 14
6 32 15 40 19 23 13 26 12 10 -4z"/>
<path d="M3460 2156 c0 -15 24 -28 34 -19 13 14 5 33 -14 33 -11 0 -20 -6 -20
-14z"/>
<path d="M3568 2111 c-31 -10 -72 -28 -91 -40 -19 -12 -51 -21 -72 -21 -36 0
-125 -45 -125 -62 0 -12 8 -10 36 8 13 9 27 14 30 12 3 -3 -11 -15 -31 -26
-48 -29 -45 -47 5 -22 54 28 63 25 15 -5 -26 -16 -34 -24 -22 -25 30 0 94 38
117 69 16 23 39 36 98 55 42 13 98 27 125 31 50 8 63 28 25 39 -33 8 -47 7
-110 -13z"/>
<path d="M3230 2035 c0 -9 5 -15 11 -13 6 2 11 8 11 13 0 5 -5 11 -11 13 -6 2
-11 -4 -11 -13z"/>
<path d="M2472 1706 c-18 -39 -27 -46 -59 -51 -69 -12 -69 -13 -30 -53 36 -37
37 -39 28 -87 -5 -28 -8 -51 -6 -53 1 -2 23 7 49 20 l46 22 46 -22 c26 -13 48
-22 49 -20 2 2 -1 25 -6 53 -9 48 -8 50 28 87 39 40 39 41 -30 53 -32 5 -41
12 -59 51 -12 24 -25 44 -28 44 -3 0 -16 -20 -28 -44z"/>
<path d="M2150 1586 c-6 -21 -17 -39 -24 -41 -6 -3 -24 -9 -41 -15 l-29 -11
32 -25 c26 -21 32 -32 32 -65 0 -21 3 -39 6 -39 3 0 19 9 35 21 25 18 34 19
61 10 45 -16 46 -15 35 28 -9 33 -7 42 11 69 12 16 22 33 22 36 0 3 -20 6 -45
6 -25 0 -45 3 -45 8 0 4 -9 18 -19 31 l-18 24 -13 -37z"/>
<path d="M2815 1592 c-17 -28 -25 -32 -62 -32 -24 0 -43 -3 -43 -6 0 -3 10
-19 21 -36 19 -26 20 -35 11 -66 -6 -20 -10 -38 -7 -40 2 -2 20 1 39 8 31 10
39 9 65 -9 16 -12 32 -21 35 -21 3 0 6 18 6 39 0 33 6 44 32 65 l32 25 -28 10
c-15 6 -32 11 -37 11 -5 0 -18 19 -28 42 l-17 42 -19 -32z"/>
</g>
</svg>
